<svg width="62" height="62" viewBox="0 0 62 62" fill="none" xmlns="http://www.w3.org/2000/svg">
<g clip-path="url(#clip0_1_5)">
<path d="M18.4184 4.62578C19.6172 5.70352 19.7141 7.53203 18.6363 8.73086L9.91759 18.4184C9.38478 19.0117 8.634 19.3629 7.83478 19.375C7.03556 19.3871 6.27267 19.0844 5.70353 18.5273L0.847668 13.6836C-0.278503 12.5453 -0.278503 10.7047 0.847668 9.56641C1.97384 8.42813 3.82657 8.42813 4.95275 9.56641L7.62892 12.2426L14.3012 4.83164C15.3789 3.63281 17.2074 3.53594 18.4063 4.61367L18.4184 4.62578ZM18.4184 24.0008C19.6172 25.0785 19.7141 26.907 18.6363 28.1059L9.91759 37.7934C9.38478 38.3867 8.634 38.7379 7.83478 38.75C7.03556 38.7621 6.27267 38.4594 5.70353 37.9023L0.847668 33.0586C-0.290613 31.9203 -0.290613 30.0797 0.847668 28.9535C1.98595 27.8273 3.82657 27.8152 4.95275 28.9535L7.62892 31.6297L14.3012 24.2188C15.3789 23.0199 17.2074 22.923 18.4063 24.0008H18.4184ZM27.125 11.625C27.125 9.48164 28.8567 7.75 31 7.75H58.125C60.2684 7.75 62 9.48164 62 11.625C62 13.7684 60.2684 15.5 58.125 15.5H31C28.8567 15.5 27.125 13.7684 27.125 11.625ZM27.125 31C27.125 28.8566 28.8567 27.125 31 27.125H58.125C60.2684 27.125 62 28.8566 62 31C62 33.1434 60.2684 34.875 58.125 34.875H31C28.8567 34.875 27.125 33.1434 27.125 31ZM19.375 50.375C19.375 48.2316 21.1067 46.5 23.25 46.5H58.125C60.2684 46.5 62 48.2316 62 50.375C62 52.5184 60.2684 54.25 58.125 54.25H23.25C21.1067 54.25 19.375 52.5184 19.375 50.375ZM5.81251 44.5625C7.35408 44.5625 8.83252 45.1749 9.92257 46.2649C11.0126 47.355 11.625 48.8334 11.625 50.375C11.625 51.9166 11.0126 53.395 9.92257 54.4851C8.83252 55.5751 7.35408 56.1875 5.81251 56.1875C4.27094 56.1875 2.79251 55.5751 1.70245 54.4851C0.612399 53.395 1.21724e-05 51.9166 1.21724e-05 50.375C1.21724e-05 48.8334 0.612399 47.355 1.70245 46.2649C2.79251 45.1749 4.27094 44.5625 5.81251 44.5625Z" fill="#4EC032"/>
</g>
<defs>
<clipPath id="clip0_1_5">
<rect width="62" height="62" fill="white"/>
</clipPath>
</defs>
</svg>
