<svg width="22" height="24" viewBox="0 0 22 24" fill="none" xmlns="http://www.w3.org/2000/svg">
<path d="M6.63929 0.829688C6.90446 0.31875 7.44955 0 8.04375 0H13.9563C14.5504 0 15.0955 0.31875 15.3607 0.829688L15.7143 1.5H20.4286C21.2978 1.5 22 2.17031 22 3C22 3.82969 21.2978 4.5 20.4286 4.5H1.57143C0.702232 4.5 0 3.82969 0 3C0 2.17031 0.702232 1.5 1.57143 1.5H6.28571L6.63929 0.829688ZM1.57143 6H20.4286V21C20.4286 22.6547 19.0192 24 17.2857 24H4.71429C2.9808 24 1.57143 22.6547 1.57143 21V6ZM6.28571 9C5.85357 9 5.5 9.3375 5.5 9.75V20.25C5.5 20.6625 5.85357 21 6.28571 21C6.71786 21 7.07143 20.6625 7.07143 20.25V9.75C7.07143 9.3375 6.71786 9 6.28571 9ZM11 9C10.5679 9 10.2143 9.3375 10.2143 9.75V20.25C10.2143 20.6625 10.5679 21 11 21C11.4321 21 11.7857 20.6625 11.7857 20.25V9.75C11.7857 9.3375 11.4321 9 11 9ZM15.7143 9C15.2821 9 14.9286 9.3375 14.9286 9.75V20.25C14.9286 20.6625 15.2821 21 15.7143 21C16.1464 21 16.5 20.6625 16.5 20.25V9.75C16.5 9.3375 16.1464 9 15.7143 9Z" fill="#E72B2B"/>
</svg>
